<svg fill="none" height="24" viewBox="0 0 142 24" width="142" xmlns="http://www.w3.org/2000/svg" xmlns:xlink="http://www.w3.org/1999/xlink"><clipPath id="a"><path d="m0 .574707h142v22.8506h-142z"/></clipPath><g clip-path="url(#a)" clip-rule="evenodd" fill-rule="evenodd"><path d="m1.50977 23.3029h-1.50977v-17.66842h1.50977v2.01574h.04897c1.03643-1.50977 2.27689-2.26057 3.94988-2.26057 3.38678 0 5.24748 3.26437 5.24748 6.85515 0 4.5375-2.12185 6.692-5.14139 6.692-1.76276 0-2.81551-.6039-4.09678-1.9586v6.3247zm55.24943-11.0989c0 2.9706 1.2404 5.525 4.2029 5.525 1.6811 0 2.5135-.5713 3.8193-2.6279l1.2241.6529c-1.4037 2.3014-2.6931 3.1828-5.1658 3.1828-3.4276 0-5.574-2.179-5.574-6.7736 0-4.03964 2.0566-6.77355 5.3699-6.77355 3.5419 0 5.223 2.77471 5.223 6.82255h-9.0913zm46.0278 0c0 2.9706 1.224 5.525 4.203 5.525 1.681 0 2.505-.5713 3.811-2.6279l1.224.6529c-1.387 2.3014-2.677 3.1828-5.166 3.1828-3.411 0-5.574-2.179-5.574-6.7736 0-4.03964 2.065-6.77355 5.386-6.77355 3.534 0 5.223 2.77471 5.223 6.82255h-9.091zm-12.6741 6.4798h-1.4527l-.204-1.5832c-1.5669 1.2241-2.7421 1.828-4.7497 1.828-2.0402 0-3.5908-1.2568-3.5908-3.4112 0-3.5664 2.9053-4.2111 8.3568-5.4189v-.8977c0-1.73828-.7508-2.6115-2.9869-2.6115-1.5505 0-2.84.84874-3.7948 2.36667l-.9956-.61207c1.1425-2.10551 2.742-2.96241 4.8476-2.96241 2.9624 0 4.366 1.20781 4.366 4.08046v6.83065c0 .6529.0572 1.5098.2041 2.383zm38.4051-9.38507c-.677-1.50977-1.657-2.71759-3.395-2.71759-2.448 0-4.113 1.53426-4.113 5.56576 0 3.3296 1.502 5.5657 4.113 5.5657 1.861 0 2.857-1.0282 3.917-2.7094l1.208.5713c-1.101 1.8607-2.636 3.346-5.125 3.346-3.672 0-5.631-2.84-5.631-6.7736 0-4.48851 2.269-6.77357 5.631-6.77357 2.465 0 3.999 1.38735 4.774 3.53368l-1.387.3754zm-108.9073-2.4646h-.6774c-1.6566 0-3.8193 1.95862-3.8193 4.47217v7.3693h-1.5016v-13.05744h1.5016v2.48908h.049c.7018-1.60771 2.1218-2.73391 3.7703-2.73391h.6774v1.45264zm50.867 11.83337h-1.5179v-18.092793h1.5179v11.996593l6.0554-6.93682h1.7301l-4.2437 4.87202 4.8966 8.1773h-1.6812l-4.162-7.1327-2.5952 2.9135v4.211zm25.005 0h-1.5016v-13.0167h1.5016v2.48908h.0572c.7018-1.6077 2.1055-2.73391 3.754-2.73391h.6855v1.45264h-.6692c-1.6566 0-3.8193 1.95863-3.8193 4.47219v7.3693zm-41.4248 0h-9.7441v-18.092793h1.6567v16.754393h8.0793v1.3547zm87.4601 0h-9.719v-.9467l7.532-10.88667h-6.936v-1.19965h8.952v.95482l-7.532 10.8867h7.728v1.2241zm-53.1026-7.3612c-5.9738 1.3058-6.7736 2.5299-6.7736 4.1866 0 1.42.9793 2.2197 2.3259 2.2197 1.4118 0 3.1419-.8161 4.4477-2.1544v-4.26zm-86.89747 4.0805c.48966.8814 2.20345 2.334 3.68874 2.334 2.70942 0 4.03965-2.1545 4.03965-5.7616 0-2.7176-1.19965-5.3699-3.81115-5.3699-1.65666 0-2.63597 1.02828-3.91724 2.38299v6.42261zm62.83907-4.3824c-.3019-2.69314-1.469-4.40693-3.754-4.42326-2.6686-.02448-3.803 2.69311-3.8357 4.40686h7.5897zm46.028 0c-.302-2.69314-1.486-4.40693-3.771-4.42326-2.66-.02448-3.786 2.69311-3.811 4.40686h7.59zm-50.0513-6.82257h-1.2813l2.791-3.460226h1.9342l-3.4439 3.468386zm36.7241 0h-1.6975l-2.8971-3.460226h1.6648l2.0648 2.529886 2.0647-2.513565h1.673l-2.8564 3.468395z" fill="#5c5c5c"/><path d="m114.89 18.6923h2.163v-2.2851h-2.163m-74.9824-4.2437c0 4.9374-3.9989 8.9362-8.9362 8.9362-4.9374 0-8.9362-3.9988-8.9362-8.9362 0-4.91286 3.9988-8.89538 8.9443-8.89538 4.9292-.01633 8.9281 3.98252 8.9281 8.89538z" fill="#c1121e"/><path d="m36.5289 10.4004h-3.7785v-3.78663h-3.55v3.78663h-3.7785v3.55h3.7785v3.7622h3.55v-3.754h3.7785" fill="#fff"/></g></svg>